<?xml version="1.0" encoding="UTF-8" standalone="no"?>
<svg width="149px" height="54px" viewBox="0 0 149 54" version="1.1" xmlns="http://www.w3.org/2000/svg" xmlns:xlink="http://www.w3.org/1999/xlink" xmlns:sketch="http://www.bohemiancoding.com/sketch/ns">
    <title>Cosign + Path 1 + Path 1 copy@2x</title>
    <description>Created with Sketch (http://www.bohemiancoding.com/sketch)</description>
    <defs></defs>
    <g id="Page-1" stroke="none" stroke-width="1" fill="none" fill-rule="evenodd" sketch:type="MSPage">
        <g id="Artboard-1" sketch:type="MSArtboardGroup" transform="translate(-505.000000, -84.000000)" fill="#FFFFFF">
            <g id="Cosign-+-Path-1-+-Path-1-copy" sketch:type="MSLayerGroup" transform="translate(504.000000, 78.000000)">
                <path d="M3.8125,59.1110975 L86.4296875,52.1773381" id="Path-1" stroke="#FFFFFF" stroke-width="3" stroke-linecap="round" sketch:type="MSShapeGroup" transform="translate(45.218750, 55.545164) rotate(1.000000) translate(-45.218750, -55.545164) "></path>
                <path d="M116.3125,50.7905862 L143.070312,48.2151899" id="Path-1-copy" stroke="#FFFFFF" stroke-width="3" stroke-linecap="round" sketch:type="MSShapeGroup" transform="translate(129.789062, 49.601942) rotate(1.000000) translate(-129.789062, -49.601942) "></path>
                <path d="M98.8082733,30.6891536 C98.755913,30.7728826 98.7007318,30.862008 98.6427297,30.9565299 C98.1347563,31.7843385 97.5327228,32.7626429 96.8366111,33.8914727 C96.1404994,35.0203025 95.5102455,35.9515731 94.9458307,36.6853125 C94.3814158,37.4190518 93.6570942,38.1151531 92.7728442,38.7736371 C91.8885942,39.4321212 91.2018997,39.7613583 90.7127401,39.7613583 C89.9978146,39.7613583 89.6403572,39.2157654 89.6403572,38.1245632 C89.6403572,37.0333611 89.9507807,35.6223451 90.5716371,33.8914727 C91.1924935,32.1606004 91.7474931,30.7872114 92.2366527,29.7712646 C92.7258123,28.7553178 93.4689474,27.250234 94.4660804,25.255968 C95.4632134,23.2617021 96.2627891,22.0388215 96.8648317,21.5872896 L96.3004196,21.5872896 L93.4783593,21.5308484 C91.8603699,21.5308484 90.3929132,22.6596612 89.0759451,24.9173208 C87.744771,27.2749424 86.697298,29.5436813 85.9335223,31.7235494 C85.6942372,32.1402337 85.42475,32.6182961 85.1250606,33.157737 C84.5606457,34.0984285 84.1655612,34.7192756 83.9397953,35.0202969 C81.5692527,38.6325522 79.3304406,40.8901779 77.2232916,41.7932417 C77.9758448,41.2288268 78.6249122,40.4762849 79.1705133,39.5355934 C79.7161143,38.5949019 79.9889108,37.5319365 79.9889108,36.3466652 C79.9889108,35.1613939 79.5750127,34.0325811 78.7472042,32.9601928 C77.9193957,31.8878045 77.0163454,31.0506016 76.0380263,30.4485591 C75.0597071,29.8465165 74.1566569,29.1127882 73.3288483,28.247352 C72.5010398,27.3819158 72.0871418,26.460052 72.0871418,25.4817329 C72.0871418,24.5034137 72.4916331,23.7132447 73.3006277,23.1112022 C74.1096224,22.5091596 74.9468253,22.2081429 75.8122615,22.2081429 C76.6776976,22.2081429 77.3455786,22.3492445 77.8159243,22.6314519 C78.2862701,22.9136594 78.5214394,23.3369642 78.5214394,23.9013791 C78.5214394,24.465794 78.0887278,25.0113868 77.2232916,25.5381741 C76.3578555,26.0649613 75.9251439,26.4600458 75.9251439,26.7234394 C75.9251439,27.8522692 76.5365842,28.4166756 77.7594831,28.4166756 C78.982382,28.4166756 79.9512797,27.983964 80.6662053,27.1185279 C81.3811308,26.2530917 81.7385882,25.2277534 81.7385882,24.0424821 C81.7385882,22.8572108 81.1929953,21.9823808 80.1017932,21.417966 C79.0105911,20.8535511 77.6748292,20.5713478 76.0944675,20.5713478 C73.5734143,20.5713478 71.588585,21.2204152 70.1399201,22.5185695 C68.6912553,23.8167237 67.9669337,25.4158753 67.9669337,27.3160721 C67.9669337,29.2162689 68.7382891,30.9000814 70.2810232,32.3675601 L72.2000242,34.1736788 C72.8396944,34.7757213 73.3852873,35.4718226 73.8368192,36.2620034 C74.2883511,37.0521843 74.5141137,37.9646413 74.5141137,38.999402 C74.5141137,40.0341626 74.0531818,40.9842467 73.1313041,41.8496829 C72.2094265,42.7151191 71.1276475,43.1478307 69.8859347,43.1478307 C67.7787858,43.1478307 66.7252271,42.2071533 66.7252271,40.3257703 C66.7252271,39.3850788 67.0826845,38.5572827 67.7976101,37.8423572 C67.5342164,37.1650593 66.9415897,36.8264155 66.019712,36.8264155 C65.0978344,36.8264155 64.3735128,37.2026864 63.8467256,37.9552396 C63.3199383,38.7077928 63.0565487,39.5355889 63.0565487,40.4386527 C63.0565487,42.0190144 63.7714635,43.2136747 65.2013145,44.0226694 C66.6311656,44.8316641 68.3996391,45.2361553 70.506788,45.2361553 C74.156671,45.2361553 77.1292115,44.3142915 79.4244987,42.4705362 C81.0535004,41.1619939 82.8151531,39.1332653 84.7094845,36.3843152 L84.7094845,36.3843152 C84.4973778,37.6372835 84.3913249,38.8570323 84.3913249,40.0435643 C84.3913249,42.9785217 85.4448836,44.4459784 87.5520325,44.4459784 C88.7561176,44.4459784 90.0918795,43.8627585 91.5593582,42.696301 C93.026837,41.5298436 94.3343785,40.1658614 95.4820221,38.6043135 C96.011585,37.8837607 96.5671821,37.0810935 97.1488171,36.1963062 C96.9971207,37.163863 96.9212729,38.1264476 96.9212729,39.0840638 C96.9212729,42.5458084 98.2005941,44.2766548 100.759275,44.2766548 C104.672552,44.2766548 108.849159,40.1000473 113.289223,31.7467068 C109.940361,41.0407387 108.134261,46.0075153 107.870867,46.6471855 C106.85492,49.0553557 105.613226,51.1718798 104.145747,52.9968213 C102.678269,54.8217628 101.04149,55.7342199 99.2353624,55.7342199 C98.5956922,55.7342199 98.0783196,55.5648979 97.6832292,55.226249 C97.2881388,54.8876001 97.0905965,54.4642952 97.0905965,53.9563218 C97.0905965,53.4483484 97.194071,52.9121623 97.4010232,52.3477474 C97.6079753,51.7833325 97.8995853,51.388248 98.2758619,51.1624821 C97.9372129,50.3723012 97.2787388,49.9772167 96.3004196,49.9772167 C95.3221005,49.9772167 94.5413383,50.3911148 93.9581095,51.2189233 C93.3748808,52.0467318 93.0832708,52.9309685 93.0832708,53.87166 C93.0832708,56.2422026 94.9646256,57.4274561 98.7273915,57.4274561 C100.495892,57.4274561 102.461907,56.8348293 104.625498,55.649558 C106.789088,54.4642868 108.73629,52.7710675 110.467163,50.5698494 C112.198035,48.3686313 114.229898,43.9192273 116.562813,37.2215039 C117.616387,34.2489188 118.472404,31.9066322 119.130888,30.1945737 C119.789372,28.4825151 120.588948,26.742262 121.529639,24.973762 C122.470331,23.205262 123.335754,22.0576356 124.125935,21.5308484 L121.868286,21.5308484 C120.099786,21.5308484 118.829872,21.7566109 118.058505,22.2081429 C117.287138,22.6596748 116.619257,23.4874709 116.054842,24.691556 C115.753821,23.4874709 115.067126,22.6220477 113.994738,22.0952604 C112.92235,21.5684732 111.802944,21.3050835 110.636486,21.3050835 C108.077805,21.3050835 105.726112,22.2551677 103.581335,24.1553645 C101.537616,25.9660283 99.9466094,28.1439381 98.8082733,30.6891536 L98.8082733,30.6891536 Z M38.3353,12.7260201 C37.7332574,14.2687541 36.6138513,15.5668889 34.9770481,16.6204634 C33.3402449,17.6740378 31.6376189,18.2008171 29.8691189,18.2008171 C29.0413104,18.2008171 28.3640227,18.0220884 27.8372354,17.6646257 C27.3104482,17.3071629 27.0470585,16.846231 27.0470585,16.2818161 C27.0470585,15.7174012 27.2728211,15.1153677 27.724353,14.4756975 C28.1382573,14.6262081 28.608596,14.7014623 29.1353832,14.7014623 C30.6028619,14.7014623 31.9574373,14.1934965 33.1991501,13.1775497 C34.4408629,12.1616029 35.0617099,10.9387223 35.0617099,9.50887126 C35.0617099,7.32646701 33.6130668,6.23528125 30.715737,6.23528125 C26.8777157,6.23528125 23.1338198,7.55222958 19.4839368,10.1861657 C15.8340538,12.8201019 12.8897336,16.2347608 10.6508879,20.4302448 C8.41204215,24.6257289 7.29263607,28.8869974 7.29263607,33.2141782 C7.29263607,39.9119016 10.3404308,43.2607131 16.4361116,43.2607131 C20.2365052,43.2607131 24.2626044,41.7932564 28.5145299,38.8582989 C32.7664555,35.9233415 35.5884876,32.743852 36.980711,29.3197349 C37.6956365,29.8088945 38.0530939,30.4673687 38.0530939,31.2951772 C38.0530939,32.9884219 36.8490269,35.0861324 34.4408567,37.5883718 C32.0326865,40.0906111 29.0037053,42.0848472 25.3538223,43.5711397 C21.7039394,45.0574323 17.9788569,45.8005674 14.1784633,45.8005674 C5.33596334,45.8005674 0.914779666,41.6804005 0.914779666,33.4399431 C0.914779666,30.3168473 1.61088093,27.0526968 3.00310433,23.6473936 C4.39532773,20.2420904 6.27668249,17.0814145 8.64722504,14.1652708 C11.0177676,11.2491272 13.9809013,8.85039992 17.5367152,6.96901694 C21.092529,5.08763397 24.6012556,4.14695659 28.0630003,4.14695659 C31.5247449,4.14695659 34.1774552,4.73958334 36.0212105,5.92485461 C37.8649658,7.11012589 38.7868296,8.62461646 38.7868296,10.4683718 C38.7868296,11.1456697 38.6363212,11.8982116 38.3353,12.7260201 Z M65.4835206,30.2227943 C65.5964035,29.9970283 65.7092848,29.884147 65.8221678,29.884147 C66.0479338,29.884147 66.160815,30.1663502 66.160815,30.7307651 C66.160815,32.5368928 65.4364935,34.0325698 63.9878286,35.2178411 C62.5391637,36.4031124 61.1845883,36.9957391 59.9240617,36.9957391 C58.6635351,36.9957391 57.5817561,36.6382817 56.6786923,35.9233562 C55.3240965,38.59492 53.7155382,40.7020373 51.8529691,42.2447714 C49.9903999,43.7875054 47.5916726,44.5588609 44.6567152,44.5588609 C42.7753322,44.5588609 41.242028,43.9850477 40.0567568,42.837404 C38.8714855,41.6897604 38.2788588,39.9401005 38.2788588,37.5883718 C38.2788588,35.2366431 38.8150449,32.8096954 39.8874332,30.3074561 C40.9598214,27.8052167 42.5777865,25.6510655 44.741377,23.8449379 C46.9049674,22.0388102 49.3225082,21.1357599 51.9940721,21.1357599 C56.4717636,21.1357599 58.7105757,23.5062669 58.7105757,28.247352 C58.7105757,30.0534797 58.3154912,31.953648 57.5253104,33.9479139 C58.0897253,34.7380948 58.8987078,35.1331793 59.9522823,35.1331793 C61.9089206,35.1331793 63.7526482,33.4964006 65.4835206,30.2227943 Z M56.057839,26.7234394 C55.9073283,24.7291735 55.0042781,23.7320554 53.348661,23.7320554 C50.7523525,23.7320554 48.2125236,26.2530708 45.7290981,31.2951772 C44.3745023,34.079624 43.6972146,36.6006394 43.6972146,38.8582989 C43.6972146,41.1159585 44.6755191,42.301212 46.6321574,42.414095 C48.2501468,42.414095 49.7458238,41.5580786 51.1192334,39.8460201 C52.4926429,38.1339616 53.6496761,36.2432 54.5903676,34.1736788 C53.3110272,33.0824766 52.6713666,31.7090877 52.6713666,30.0534706 C52.6713666,29.0375238 52.944163,28.2285413 53.4897641,27.6264987 C54.0353651,27.0244562 54.7785002,26.7234394 55.7191917,26.7234394 L56.057839,26.7234394 Z M101.154363,14.080609 L100.928599,14.080609 C100.176045,14.080609 99.4517238,14.4004393 98.7556121,15.0401096 C98.0595004,15.6797798 97.5609414,16.3382539 97.2599201,17.0155518 C96.281601,16.6392752 95.7924488,15.9619875 95.7924488,14.9836683 C95.7924488,14.0053492 96.2439739,13.017638 97.1470377,12.020505 C98.0501016,11.023372 98.9155247,10.524813 99.7433333,10.524813 C100.571142,10.524813 101.191989,10.7129485 101.605893,11.0892251 C102.019797,11.4655017 102.226746,11.9452471 102.226746,12.5284758 C102.226746,13.1117046 101.869289,13.6290771 101.154363,14.080609 Z M115.829077,25.1995268 C115.452801,23.9954417 114.568564,23.3934082 113.176341,23.3934082 C110.692915,23.3934082 108.275374,25.1336613 105.923645,28.6142199 C103.571917,32.0947784 102.39607,35.1896069 102.39607,37.8987984 C102.39607,39.0276282 102.847595,39.5920346 103.750659,39.5920346 C104.728978,39.5920346 105.876605,38.9805943 107.193573,37.7576954 C108.510541,36.5347965 109.695794,35.0955601 110.749369,33.4399431 C114.135858,28.2096984 115.829077,25.4629204 115.829077,25.1995268 Z M148.508536,32.7626486 C147.116313,35.0955635 145.846398,37.0427656 144.698755,38.6043135 C143.551111,40.1658614 142.24357,41.5298436 140.776091,42.696301 C139.308612,43.8627585 137.97285,44.4459784 136.768765,44.4459784 C134.548733,44.4459784 133.438734,43.2230978 133.438734,40.7773 C133.438734,38.3315021 134.84975,33.4211662 137.671824,26.0461449 C137.822335,25.707496 137.897589,25.3500386 137.897589,24.973762 C137.897589,24.1835811 137.39903,23.7884966 136.401897,23.7884966 C135.404764,23.7884966 134.42646,24.0989202 133.466954,24.7197766 C132.507449,25.3406329 131.632619,26.2248697 130.842438,27.3725133 C130.052258,28.5201569 129.337343,29.6865969 128.697672,30.8718681 C128.058002,32.0571394 127.465376,33.4211216 126.919774,34.9638557 C126.374173,36.5065897 125.941462,37.7953177 125.621627,38.8300783 C125.301792,39.864839 124.981961,40.9748383 124.662126,42.1601096 C124.342291,43.3453808 124.163562,43.9944482 124.125935,44.1073312 L118.651138,44.1073312 C118.651138,43.3171503 120.30673,38.7830854 123.617964,30.5050003 C124.97256,26.6293514 125.649847,23.9202005 125.649847,22.3774665 C125.649847,22.0011899 125.593407,21.7189867 125.480524,21.5308484 L127.851054,21.5308484 C129.168022,21.5308484 130.014632,21.6625432 130.390909,21.9259368 C130.767185,22.1893304 130.955321,22.5467878 130.955321,22.9983198 C130.955321,23.4498517 130.748372,24.3717155 130.334467,25.7639389 C133.495191,22.7537261 136.67468,21.2486423 139.873031,21.2486423 C142.017808,21.2486423 143.09018,22.2269468 143.09018,24.1835851 C143.09018,24.8232553 142.996113,25.4629159 142.807974,26.1025861 C142.619836,26.7422564 142.149497,28.0215776 141.396944,29.9405882 C139.741327,34.1548861 138.913531,36.9769182 138.913531,38.4067693 C138.913531,39.3098331 139.252175,39.7613583 139.929473,39.7613583 C140.418632,39.7613583 141.105327,39.4227144 141.989577,38.7454165 C142.873827,38.0681187 143.607555,37.3626106 144.190784,36.6288713 C144.774013,35.8951319 145.413673,34.9732681 146.109785,33.8632521 C146.805897,32.7532362 147.398523,31.7843385 147.887683,30.9565299 C148.376842,30.1287214 148.659046,29.7148234 148.734301,29.7148234 C148.960067,29.7148234 149.072948,30.062874 149.072948,30.7589857 C149.072948,31.4550974 148.884813,32.1229784 148.508536,32.7626486 Z" id="Cosign" sketch:type="MSShapeGroup" transform="translate(74.914780, 30.646957) rotate(-3.000000) translate(-74.914780, -30.646957) "></path>
            </g>
        </g>
    </g>
</svg>